{"title":"Pacific Rim 2013 CAM MP3 MURDER","uid":8703872,"size":2774193164,"categoryP":"video","categoryS":"movies","magnet":"?xt=urn:btih:45bdc98b6c768f2c38629a4ff755de1c98c079f2&amp;dn=Pacific+Rim+2013+CAM+MP3+MURDER&amp;tr=udp%3A%2F%2Ftracker.openbittorrent.com%3A80&amp;tr=udp%3A%2F%2Fopen.demonii.com%3A1337&amp;tr=udp%3A%2F%2Ftracker.coppersurfer.tk%3A6969&amp;tr=udp%3A%2F%2Fexodus.desync.com%3A6969","seeders":2,"leechers":0,"uploader":"xxxlavalxxx","files":-1,"time":1374106854,"description":"\n &lt;a href=&quot;\nhttp://www.imdb.com/title/tt1663662/&quot; rel=&quot;nofollow&quot; target=&quot;_NEW&quot;&gt;\nhttp://www.imdb.com/title/tt1663662/&lt;/a&gt;\n\n\n\n\n As a war between humankind and monstrous sea creatures wages on, a former pilot and a trainee are paired up to drive a seemingly obsolete special weapon in a desperate effort to save the world from the apocalypse. \n\n\n\n Director:\n Guillermo del Toro \n\n Writers:\n Travis Beacham (screenplay), Guillermo del Toro (screenplay)\n\n Stars:\n Charlie Hunnam, Idris Elba, Rinko Kikuchi \n\n Genres:\n   Action |  Adventure |  Fantasy |  Sci-Fi \n\n Country:\n USA \n\n Language:\n English | Japanese | Cantonese \n\n\n\n\n\nGeneral\n Complete name                            : Pacific Rim 2013 CAM MP3 MURDER.mkv\n Format                                   : Matroska\n Format version                           : Version 2\n File size                                : 2.58 GiB\n Duration                                 : 2h 2mn\n Overall bit rate                         : 3 023 Kbps\n\n Video\n ID                                       : 1\n Format                                   : AVC\n Format/Info                              : Advanced Video Codec\n Format profile                           : &lt;a class=&quot;__cf_email__&quot; href=&quot;/cdn-cgi/l/email-protection&quot; data-cfemail=&quot;e2a08391878e8b8c87a2aed1ccd2&quot;&gt;[email&amp;#160;protected]&lt;/a&gt;&lt;script cf-hash='f9e31' type=&quot;text/javascript&quot;&gt;\n/* &lt;![CDATA[ */!function(){try{var t=&quot;currentScript&quot;in document?document.currentScript:function(){for(var t=document.getElementsByTagName(&quot;script&quot;),e=t.length;e--;)if(t[e].getAttribute(&quot;cf-hash&quot;))return t[e]}();if(t&amp;&amp;t.previousSibling){var e,r,n,i,c=t.previousSibling,a=c.getAttribute(&quot;data-cfemail&quot;);if(a){for(e=&quot;&quot;,r=parseInt(a.substr(0,2),16),n=2;a.length-n;n+=2)i=parseInt(a.substr(n,2),16)^r,e+=String.fromCharCode(i);e=document.createTextNode(e),c.parentNode.replaceChild(e,c)}}}catch(u){}}();/* ]]&gt; */&lt;/script&gt;\n Format settings, CABAC                   : No\n Format settings, ReFrames                : 1 frame\n Codec ID                                 : V_MPEG4/ISO/AVC\n Duration                                 : 2h 2mn\n Bit rate                                 : 2 860 Kbps\n Width                                    : 682 pixels\n Height                                   : 348 pixels\n Display aspect ratio                     : 1.960\n Frame rate mode                          : Constant\n Frame rate                               : 25.000 fps\n Color space                              : YUV\n Chroma subsampling                       : 4:2:0\n Bit depth                                : 8 bits\n Scan type                                : Progressive\n Bits/(Pixel*Frame)                       : 0.482\n Stream size                              : 2.40 GiB (93%)\n Writing library                          : x264 core \n Default                                  : Yes\n Forced                                   : No\n\n Audio\n ID                                       : 2\n Format                                   : MPEG Audio\n Format version                           : Version 2\n Format profile                           : Layer 3\n Mode                                     : Joint stereo\n Mode extension                           : MS Stereo\n Codec ID                                 : A_MPEG/L3\n Codec ID/Hint                            : MP3\n Duration                                 : 2h 2mn\n Bit rate mode                            : Constant\n Bit rate                                 : 160 Kbps\n Channel(s)                               : 2 channels\n Sampling rate                            : 22.05 KHz\n Compression mode                         : Lossy\n Stream size                              : 140 MiB (5%)\n Writing library                          : LAME3.98.4\n Default                                  : Yes\n Forced                                   : NO\n\n\n ... ENHANCED AND AUDIO CLEAN.....\n\n\n\n\n\n\n\n\n\n\nscreens\n\n\n    &lt;a href=&quot;\thttp://addpix.net/viewer.php?file=81506094594862754348.jpg&quot; rel=&quot;nofollow&quot; target=&quot;_NEW&quot;&gt;\thttp://addpix.net/viewer.php?file=81506094594862754348.jpg&lt;/a&gt;\n    &lt;a href=&quot;\thttp://addpix.net/viewer.php?file=32377130426782424910.jpg&quot; rel=&quot;nofollow&quot; target=&quot;_NEW&quot;&gt;\thttp://addpix.net/viewer.php?file=32377130426782424910.jpg&lt;/a&gt;\n    &lt;a href=&quot;\thttp://addpix.net/viewer.php?file=27782338322437563417.jpg&quot; rel=&quot;nofollow&quot; target=&quot;_NEW&quot;&gt;\thttp://addpix.net/viewer.php?file=27782338322437563417.jpg&lt;/a&gt;\n    &lt;a href=&quot;\thttp://addpix.net/viewer.php?file=86359586070675450973.jpg&quot; rel=&quot;nofollow&quot; target=&quot;_NEW&quot;&gt;\thttp://addpix.net/viewer.php?file=86359586070675450973.jpg&lt;/a&gt;\n    &lt;a href=&quot;\thttp://addpix.net/viewer.php?file=67600422863788168719.jpg&quot; rel=&quot;nofollow&quot; target=&quot;_NEW&quot;&gt;\thttp://addpix.net/viewer.php?file=67600422863788168719.jpg&lt;/a&gt;","torrent":{"xt":"urn:btih:45bdc98b6c768f2c38629a4ff755de1c98c079f2","amp;dn":"Pacific+Rim+2013+CAM+MP3+MURDER","amp;tr":["udp%3A%2F%2Ftracker.openbittorrent.com%3A80","udp%3A%2F%2Fopen.demonii.com%3A1337","udp%3A%2F%2Ftracker.coppersurfer.tk%3A6969","udp%3A%2F%2Fexodus.desync.com%3A6969"],"infoHash":"45bdc98b6c768f2c38629a4ff755de1c98c079f2","infoHashBuffer":{"type":"Buffer","data":[69,189,201,139,108,118,143,44,56,98,154,79,247,85,222,28,152,192,121,242]},"announce":[],"urlList":[]}}